# xmcd
#
# Track frame offsets: 
#        150
#        18901
#        34638
#        49772
#        70517
#        90459
#        105265
#        120211
#        138083
#        154983
#        177445
#        194753
#
# Disc length: 2831 seconds
#
# Revision: 0
# Processed by: cddbd v1.5.2PL0 Copyright (c) Steve Scherf et al.
# Submitted via: ExactAudioCopy v0.99pb5
#
DISCID=8e0b0d0c
DTITLE=DeSoto Rust - Highway Gothic
DYEAR=2009
DGENRE=Country Rock
TTITLE0=All Riders...All Nighters
TTITLE1=San Angelo
TTITLE2=Northern Road
TTITLE3=Six Appeals
TTITLE4=Open Road
TTITLE5=Calgary
TTITLE6=Two Loads Overweight
TTITLE7=Weather
TTITLE8=Way Back To You
TTITLE9=Dirt Track Mile
TTITLE10=You Can Wait On His Memory
TTITLE11=New Morning
EXTD=
EXTT0=
EXTT1=
EXTT2=
EXTT3=
EXTT4=
EXTT5=
EXTT6=
EXTT7=
EXTT8=
EXTT9=
EXTT10=
EXTT11=
PLAYORDER=
